<mxfile host="app.diagrams.net" modified="2023-11-28T04:56:11.921Z" agent="Mozilla/5.0 (Windows NT 10.0; Win64; x64) AppleWebKit/537.36 (KHTML, like Gecko) Chrome/119.0.0.0 Safari/537.36" etag="40IS1xlWo9mQAJk-4UD2" version="22.1.4" type="device">
  <diagram name="Trang-1" id="YDsqQA3cjGdcrV1zx108">
    <mxGraphModel dx="1050" dy="566" grid="1" gridSize="10" guides="1" tooltips="1" connect="1" arrows="1" fold="1" page="1" pageScale="1" pageWidth="827" pageHeight="1169" math="0" shadow="0">
      <root>
        <mxCell id="0" />
        <mxCell id="1" parent="0" />
        <mxCell id="Cu-c-j0Z9u9zzhjZ5qv_-5" value="Đặt vé" style="swimlane;childLayout=stackLayout;resizeParent=1;resizeParentMax=0;horizontal=1;startSize=20;horizontalStack=0;html=1;" parent="1" vertex="1">
          <mxGeometry x="170" y="20" width="670" height="540" as="geometry" />
        </mxCell>
        <mxCell id="Cu-c-j0Z9u9zzhjZ5qv_-6" value="Nhân viên" style="swimlane;startSize=20;horizontal=0;html=1;" parent="Cu-c-j0Z9u9zzhjZ5qv_-5" vertex="1">
          <mxGeometry y="20" width="670" height="60" as="geometry" />
        </mxCell>
        <mxCell id="Cu-c-j0Z9u9zzhjZ5qv_-10" value="Hệ thống" style="swimlane;startSize=20;horizontal=0;html=1;" parent="Cu-c-j0Z9u9zzhjZ5qv_-5" vertex="1">
          <mxGeometry y="80" width="670" height="120" as="geometry" />
        </mxCell>
        <mxCell id="Cu-c-j0Z9u9zzhjZ5qv_-41" style="edgeStyle=orthogonalEdgeStyle;rounded=0;orthogonalLoop=1;jettySize=auto;html=1;exitX=1;exitY=0.5;exitDx=0;exitDy=0;exitPerimeter=0;entryX=0;entryY=0.5;entryDx=0;entryDy=0;entryPerimeter=0;" parent="Cu-c-j0Z9u9zzhjZ5qv_-10" source="Cu-c-j0Z9u9zzhjZ5qv_-40" target="Cu-c-j0Z9u9zzhjZ5qv_-42" edge="1">
          <mxGeometry relative="1" as="geometry">
            <mxPoint x="340" y="49.5" as="targetPoint" />
          </mxGeometry>
        </mxCell>
        <mxCell id="Cu-c-j0Z9u9zzhjZ5qv_-40" value="Cập nhật trạng thái ghế" style="points=[[0.25,0,0],[0.5,0,0],[0.75,0,0],[1,0.25,0],[1,0.5,0],[1,0.75,0],[0.75,1,0],[0.5,1,0],[0.25,1,0],[0,0.75,0],[0,0.5,0],[0,0.25,0]];shape=mxgraph.bpmn.task;whiteSpace=wrap;rectStyle=rounded;size=10;html=1;container=1;expand=0;collapsible=0;taskMarker=abstract;" parent="Cu-c-j0Z9u9zzhjZ5qv_-10" vertex="1">
          <mxGeometry x="200" y="30" width="80" height="54.5" as="geometry" />
        </mxCell>
        <mxCell id="Cu-c-j0Z9u9zzhjZ5qv_-42" value="Thêm vé ở trang thái đã đặt" style="points=[[0.25,0,0],[0.5,0,0],[0.75,0,0],[1,0.25,0],[1,0.5,0],[1,0.75,0],[0.75,1,0],[0.5,1,0],[0.25,1,0],[0,0.75,0],[0,0.5,0],[0,0.25,0]];shape=mxgraph.bpmn.task;whiteSpace=wrap;rectStyle=rounded;size=10;html=1;container=1;expand=0;collapsible=0;taskMarker=abstract;" parent="Cu-c-j0Z9u9zzhjZ5qv_-10" vertex="1">
          <mxGeometry x="380" y="30" width="80" height="54.5" as="geometry" />
        </mxCell>
        <mxCell id="Cu-c-j0Z9u9zzhjZ5qv_-7" value="Web" style="swimlane;startSize=20;horizontal=0;html=1;" parent="Cu-c-j0Z9u9zzhjZ5qv_-5" vertex="1">
          <mxGeometry y="200" width="670" height="260" as="geometry" />
        </mxCell>
        <mxCell id="Cu-c-j0Z9u9zzhjZ5qv_-13" value="Chọn điêm đi điểm đến" style="points=[[0.25,0,0],[0.5,0,0],[0.75,0,0],[1,0.25,0],[1,0.5,0],[1,0.75,0],[0.75,1,0],[0.5,1,0],[0.25,1,0],[0,0.75,0],[0,0.5,0],[0,0.25,0]];shape=mxgraph.bpmn.task;whiteSpace=wrap;rectStyle=rounded;size=10;html=1;container=1;expand=0;collapsible=0;taskMarker=abstract;" parent="Cu-c-j0Z9u9zzhjZ5qv_-7" vertex="1">
          <mxGeometry x="90" y="176" width="80" height="54" as="geometry" />
        </mxCell>
        <mxCell id="Cu-c-j0Z9u9zzhjZ5qv_-15" value="Chọn thời gian khởi hành" style="points=[[0.25,0,0],[0.5,0,0],[0.75,0,0],[1,0.25,0],[1,0.5,0],[1,0.75,0],[0.75,1,0],[0.5,1,0],[0.25,1,0],[0,0.75,0],[0,0.5,0],[0,0.25,0]];shape=mxgraph.bpmn.task;whiteSpace=wrap;rectStyle=rounded;size=10;html=1;container=1;expand=0;collapsible=0;taskMarker=abstract;" parent="Cu-c-j0Z9u9zzhjZ5qv_-7" vertex="1">
          <mxGeometry x="210" y="176" width="80" height="54" as="geometry" />
        </mxCell>
        <mxCell id="Cu-c-j0Z9u9zzhjZ5qv_-16" style="edgeStyle=orthogonalEdgeStyle;rounded=0;orthogonalLoop=1;jettySize=auto;html=1;exitX=1;exitY=0.5;exitDx=0;exitDy=0;exitPerimeter=0;entryX=0;entryY=0.5;entryDx=0;entryDy=0;entryPerimeter=0;" parent="Cu-c-j0Z9u9zzhjZ5qv_-7" source="Cu-c-j0Z9u9zzhjZ5qv_-13" target="Cu-c-j0Z9u9zzhjZ5qv_-15" edge="1">
          <mxGeometry relative="1" as="geometry" />
        </mxCell>
        <mxCell id="Cu-c-j0Z9u9zzhjZ5qv_-18" style="edgeStyle=orthogonalEdgeStyle;rounded=0;orthogonalLoop=1;jettySize=auto;html=1;exitX=1;exitY=0.5;exitDx=0;exitDy=0;exitPerimeter=0;entryX=0;entryY=0.5;entryDx=0;entryDy=0;entryPerimeter=0;" parent="Cu-c-j0Z9u9zzhjZ5qv_-7" source="Cu-c-j0Z9u9zzhjZ5qv_-15" target="Cu-c-j0Z9u9zzhjZ5qv_-17" edge="1">
          <mxGeometry relative="1" as="geometry" />
        </mxCell>
        <mxCell id="Cu-c-j0Z9u9zzhjZ5qv_-27" value="Chọn ghế" style="points=[[0.25,0,0],[0.5,0,0],[0.75,0,0],[1,0.25,0],[1,0.5,0],[1,0.75,0],[0.75,1,0],[0.5,1,0],[0.25,1,0],[0,0.75,0],[0,0.5,0],[0,0.25,0]];shape=mxgraph.bpmn.task;whiteSpace=wrap;rectStyle=rounded;size=10;html=1;container=1;expand=0;collapsible=0;taskMarker=abstract;" parent="Cu-c-j0Z9u9zzhjZ5qv_-7" vertex="1">
          <mxGeometry x="200" y="96" width="80" height="39" as="geometry" />
        </mxCell>
        <mxCell id="Cu-c-j0Z9u9zzhjZ5qv_-30" style="edgeStyle=orthogonalEdgeStyle;rounded=0;orthogonalLoop=1;jettySize=auto;html=1;exitX=0;exitY=0.5;exitDx=0;exitDy=0;exitPerimeter=0;entryX=1;entryY=0.5;entryDx=0;entryDy=0;entryPerimeter=0;" parent="Cu-c-j0Z9u9zzhjZ5qv_-7" source="Cu-c-j0Z9u9zzhjZ5qv_-24" target="Cu-c-j0Z9u9zzhjZ5qv_-27" edge="1">
          <mxGeometry relative="1" as="geometry">
            <mxPoint x="290" y="115.5" as="targetPoint" />
          </mxGeometry>
        </mxCell>
        <mxCell id="Cu-c-j0Z9u9zzhjZ5qv_-35" style="edgeStyle=orthogonalEdgeStyle;rounded=0;orthogonalLoop=1;jettySize=auto;html=1;exitX=0.5;exitY=0;exitDx=0;exitDy=0;exitPerimeter=0;" parent="Cu-c-j0Z9u9zzhjZ5qv_-7" source="Cu-c-j0Z9u9zzhjZ5qv_-33" target="Cu-c-j0Z9u9zzhjZ5qv_-36" edge="1">
          <mxGeometry relative="1" as="geometry">
            <mxPoint x="100" y="60" as="targetPoint" />
          </mxGeometry>
        </mxCell>
        <mxCell id="Cu-c-j0Z9u9zzhjZ5qv_-33" value="HIên giá" style="points=[[0.25,0,0],[0.5,0,0],[0.75,0,0],[1,0.25,0],[1,0.5,0],[1,0.75,0],[0.75,1,0],[0.5,1,0],[0.25,1,0],[0,0.75,0],[0,0.5,0],[0,0.25,0]];shape=mxgraph.bpmn.task;whiteSpace=wrap;rectStyle=rounded;size=10;html=1;container=1;expand=0;collapsible=0;taskMarker=abstract;" parent="Cu-c-j0Z9u9zzhjZ5qv_-7" vertex="1">
          <mxGeometry x="60" y="96" width="80" height="39" as="geometry" />
        </mxCell>
        <mxCell id="Cu-c-j0Z9u9zzhjZ5qv_-34" style="edgeStyle=orthogonalEdgeStyle;rounded=0;orthogonalLoop=1;jettySize=auto;html=1;exitX=0;exitY=0.5;exitDx=0;exitDy=0;exitPerimeter=0;" parent="Cu-c-j0Z9u9zzhjZ5qv_-7" source="Cu-c-j0Z9u9zzhjZ5qv_-27" target="Cu-c-j0Z9u9zzhjZ5qv_-33" edge="1">
          <mxGeometry relative="1" as="geometry" />
        </mxCell>
        <mxCell id="Cu-c-j0Z9u9zzhjZ5qv_-36" value="Hiên thời gian hủy vé" style="points=[[0.25,0,0],[0.5,0,0],[0.75,0,0],[1,0.25,0],[1,0.5,0],[1,0.75,0],[0.75,1,0],[0.5,1,0],[0.25,1,0],[0,0.75,0],[0,0.5,0],[0,0.25,0]];shape=mxgraph.bpmn.task;whiteSpace=wrap;rectStyle=rounded;size=10;html=1;container=1;expand=0;collapsible=0;taskMarker=abstract;" parent="Cu-c-j0Z9u9zzhjZ5qv_-7" vertex="1">
          <mxGeometry x="60" y="10" width="80" height="39" as="geometry" />
        </mxCell>
        <mxCell id="Cu-c-j0Z9u9zzhjZ5qv_-37" value="Đât vé" style="points=[[0.25,0,0],[0.5,0,0],[0.75,0,0],[1,0.25,0],[1,0.5,0],[1,0.75,0],[0.75,1,0],[0.5,1,0],[0.25,1,0],[0,0.75,0],[0,0.5,0],[0,0.25,0]];shape=mxgraph.bpmn.task;whiteSpace=wrap;rectStyle=rounded;size=10;html=1;container=1;expand=0;collapsible=0;taskMarker=abstract;" parent="Cu-c-j0Z9u9zzhjZ5qv_-7" vertex="1">
          <mxGeometry x="200" y="10" width="80" height="39" as="geometry" />
        </mxCell>
        <mxCell id="Cu-c-j0Z9u9zzhjZ5qv_-38" style="edgeStyle=orthogonalEdgeStyle;rounded=0;orthogonalLoop=1;jettySize=auto;html=1;exitX=1;exitY=0.5;exitDx=0;exitDy=0;exitPerimeter=0;entryX=0;entryY=0.5;entryDx=0;entryDy=0;entryPerimeter=0;" parent="Cu-c-j0Z9u9zzhjZ5qv_-7" source="Cu-c-j0Z9u9zzhjZ5qv_-36" target="Cu-c-j0Z9u9zzhjZ5qv_-37" edge="1">
          <mxGeometry relative="1" as="geometry" />
        </mxCell>
        <mxCell id="Cu-c-j0Z9u9zzhjZ5qv_-17" value="Xuất danh sách chuyến phù hợp" style="points=[[0.25,0,0],[0.5,0,0],[0.75,0,0],[1,0.25,0],[1,0.5,0],[1,0.75,0],[0.75,1,0],[0.5,1,0],[0.25,1,0],[0,0.75,0],[0,0.5,0],[0,0.25,0]];shape=mxgraph.bpmn.task;whiteSpace=wrap;rectStyle=rounded;size=10;html=1;container=1;expand=0;collapsible=0;taskMarker=abstract;" parent="Cu-c-j0Z9u9zzhjZ5qv_-7" vertex="1">
          <mxGeometry x="370" y="176" width="80" height="54" as="geometry" />
        </mxCell>
        <mxCell id="Cu-c-j0Z9u9zzhjZ5qv_-19" value="Chọn chuyến" style="points=[[0.25,0,0],[0.5,0,0],[0.75,0,0],[1,0.25,0],[1,0.5,0],[1,0.75,0],[0.75,1,0],[0.5,1,0],[0.25,1,0],[0,0.75,0],[0,0.5,0],[0,0.25,0]];shape=mxgraph.bpmn.task;whiteSpace=wrap;rectStyle=rounded;size=10;html=1;container=1;expand=0;collapsible=0;taskMarker=abstract;" parent="Cu-c-j0Z9u9zzhjZ5qv_-7" vertex="1">
          <mxGeometry x="500" y="176" width="80" height="54" as="geometry" />
        </mxCell>
        <mxCell id="Cu-c-j0Z9u9zzhjZ5qv_-20" style="edgeStyle=orthogonalEdgeStyle;rounded=0;orthogonalLoop=1;jettySize=auto;html=1;exitX=1;exitY=0.5;exitDx=0;exitDy=0;exitPerimeter=0;entryX=0;entryY=0.5;entryDx=0;entryDy=0;entryPerimeter=0;" parent="Cu-c-j0Z9u9zzhjZ5qv_-7" source="Cu-c-j0Z9u9zzhjZ5qv_-17" target="Cu-c-j0Z9u9zzhjZ5qv_-19" edge="1">
          <mxGeometry relative="1" as="geometry" />
        </mxCell>
        <mxCell id="Cu-c-j0Z9u9zzhjZ5qv_-21" value="Xuất danh sách xe của chuyến đó" style="points=[[0.25,0,0],[0.5,0,0],[0.75,0,0],[1,0.25,0],[1,0.5,0],[1,0.75,0],[0.75,1,0],[0.5,1,0],[0.25,1,0],[0,0.75,0],[0,0.5,0],[0,0.25,0]];shape=mxgraph.bpmn.task;whiteSpace=wrap;rectStyle=rounded;size=10;html=1;container=1;expand=0;collapsible=0;taskMarker=abstract;" parent="Cu-c-j0Z9u9zzhjZ5qv_-7" vertex="1">
          <mxGeometry x="500" y="96" width="100" height="39" as="geometry" />
        </mxCell>
        <mxCell id="Cu-c-j0Z9u9zzhjZ5qv_-23" style="edgeStyle=orthogonalEdgeStyle;rounded=0;orthogonalLoop=1;jettySize=auto;html=1;exitX=1;exitY=0.5;exitDx=0;exitDy=0;exitPerimeter=0;entryX=1;entryY=0.5;entryDx=0;entryDy=0;entryPerimeter=0;" parent="Cu-c-j0Z9u9zzhjZ5qv_-7" source="Cu-c-j0Z9u9zzhjZ5qv_-19" target="Cu-c-j0Z9u9zzhjZ5qv_-21" edge="1">
          <mxGeometry relative="1" as="geometry" />
        </mxCell>
        <mxCell id="Cu-c-j0Z9u9zzhjZ5qv_-24" value="Chọn xe" style="points=[[0.25,0,0],[0.5,0,0],[0.75,0,0],[1,0.25,0],[1,0.5,0],[1,0.75,0],[0.75,1,0],[0.5,1,0],[0.25,1,0],[0,0.75,0],[0,0.5,0],[0,0.25,0]];shape=mxgraph.bpmn.task;whiteSpace=wrap;rectStyle=rounded;size=10;html=1;container=1;expand=0;collapsible=0;taskMarker=abstract;" parent="Cu-c-j0Z9u9zzhjZ5qv_-7" vertex="1">
          <mxGeometry x="360" y="96" width="80" height="39" as="geometry" />
        </mxCell>
        <mxCell id="Cu-c-j0Z9u9zzhjZ5qv_-28" style="edgeStyle=orthogonalEdgeStyle;rounded=0;orthogonalLoop=1;jettySize=auto;html=1;exitX=0;exitY=0.5;exitDx=0;exitDy=0;exitPerimeter=0;entryX=1;entryY=0.5;entryDx=0;entryDy=0;entryPerimeter=0;" parent="Cu-c-j0Z9u9zzhjZ5qv_-7" source="Cu-c-j0Z9u9zzhjZ5qv_-21" target="Cu-c-j0Z9u9zzhjZ5qv_-24" edge="1">
          <mxGeometry relative="1" as="geometry" />
        </mxCell>
        <mxCell id="Cu-c-j0Z9u9zzhjZ5qv_-43" value="Thêm vào danh vé đã đặt" style="points=[[0.25,0,0],[0.5,0,0],[0.75,0,0],[1,0.25,0],[1,0.5,0],[1,0.75,0],[0.75,1,0],[0.5,1,0],[0.25,1,0],[0,0.75,0],[0,0.5,0],[0,0.25,0]];shape=mxgraph.bpmn.task;whiteSpace=wrap;rectStyle=rounded;size=10;html=1;container=1;expand=0;collapsible=0;taskMarker=abstract;" parent="Cu-c-j0Z9u9zzhjZ5qv_-7" vertex="1">
          <mxGeometry x="365" y="10" width="90" height="60" as="geometry" />
        </mxCell>
        <mxCell id="Cu-c-j0Z9u9zzhjZ5qv_-48" value="Kết thúc" style="points=[[0.145,0.145,0],[0.5,0,0],[0.855,0.145,0],[1,0.5,0],[0.855,0.855,0],[0.5,1,0],[0.145,0.855,0],[0,0.5,0]];shape=mxgraph.bpmn.event;html=1;verticalLabelPosition=bottom;labelBackgroundColor=#ffffff;verticalAlign=top;align=center;perimeter=ellipsePerimeter;outlineConnect=0;aspect=fixed;outline=end;symbol=terminate2;" parent="Cu-c-j0Z9u9zzhjZ5qv_-7" vertex="1">
          <mxGeometry x="526.25" y="26.25" width="27.5" height="27.5" as="geometry" />
        </mxCell>
        <mxCell id="Cu-c-j0Z9u9zzhjZ5qv_-47" style="edgeStyle=orthogonalEdgeStyle;rounded=0;orthogonalLoop=1;jettySize=auto;html=1;exitX=1;exitY=0.5;exitDx=0;exitDy=0;exitPerimeter=0;" parent="Cu-c-j0Z9u9zzhjZ5qv_-7" source="Cu-c-j0Z9u9zzhjZ5qv_-43" target="Cu-c-j0Z9u9zzhjZ5qv_-48" edge="1">
          <mxGeometry relative="1" as="geometry">
            <mxPoint x="530" y="40" as="targetPoint" />
          </mxGeometry>
        </mxCell>
        <mxCell id="Cu-c-j0Z9u9zzhjZ5qv_-46" style="edgeStyle=orthogonalEdgeStyle;rounded=0;orthogonalLoop=1;jettySize=auto;html=1;exitX=0.5;exitY=1;exitDx=0;exitDy=0;exitPerimeter=0;entryX=0.5;entryY=0;entryDx=0;entryDy=0;entryPerimeter=0;" parent="Cu-c-j0Z9u9zzhjZ5qv_-7" target="Cu-c-j0Z9u9zzhjZ5qv_-43" edge="1">
          <mxGeometry relative="1" as="geometry">
            <mxPoint x="410" y="-35.5" as="sourcePoint" />
          </mxGeometry>
        </mxCell>
        <mxCell id="Cu-c-j0Z9u9zzhjZ5qv_-8" value="Khách hàng" style="swimlane;startSize=20;horizontal=0;html=1;" parent="Cu-c-j0Z9u9zzhjZ5qv_-5" vertex="1">
          <mxGeometry y="460" width="670" height="80" as="geometry" />
        </mxCell>
        <mxCell id="Cu-c-j0Z9u9zzhjZ5qv_-12" value="Khach đặt vé" style="points=[[0.145,0.145,0],[0.5,0,0],[0.855,0.145,0],[1,0.5,0],[0.855,0.855,0],[0.5,1,0],[0.145,0.855,0],[0,0.5,0]];shape=mxgraph.bpmn.event;html=1;verticalLabelPosition=bottom;labelBackgroundColor=#ffffff;verticalAlign=top;align=center;perimeter=ellipsePerimeter;outlineConnect=0;aspect=fixed;outline=standard;symbol=general;" parent="Cu-c-j0Z9u9zzhjZ5qv_-8" vertex="1">
          <mxGeometry x="60" y="24" width="22" height="22" as="geometry" />
        </mxCell>
        <mxCell id="Cu-c-j0Z9u9zzhjZ5qv_-14" style="edgeStyle=orthogonalEdgeStyle;rounded=0;orthogonalLoop=1;jettySize=auto;html=1;exitX=0.5;exitY=0;exitDx=0;exitDy=0;exitPerimeter=0;entryX=0;entryY=0.5;entryDx=0;entryDy=0;entryPerimeter=0;" parent="Cu-c-j0Z9u9zzhjZ5qv_-5" source="Cu-c-j0Z9u9zzhjZ5qv_-12" target="Cu-c-j0Z9u9zzhjZ5qv_-13" edge="1">
          <mxGeometry relative="1" as="geometry" />
        </mxCell>
        <mxCell id="Cu-c-j0Z9u9zzhjZ5qv_-39" style="edgeStyle=orthogonalEdgeStyle;rounded=0;orthogonalLoop=1;jettySize=auto;html=1;exitX=0.5;exitY=0;exitDx=0;exitDy=0;exitPerimeter=0;" parent="Cu-c-j0Z9u9zzhjZ5qv_-5" source="Cu-c-j0Z9u9zzhjZ5qv_-37" target="Cu-c-j0Z9u9zzhjZ5qv_-40" edge="1">
          <mxGeometry relative="1" as="geometry">
            <mxPoint x="240" y="220" as="targetPoint" />
          </mxGeometry>
        </mxCell>
      </root>
    </mxGraphModel>
  </diagram>
</mxfile>
